<?xml version="1.0" encoding="UTF-8"?>
<svg width="19px" height="16px" viewBox="0 0 19 16" version="1.1" xmlns="http://www.w3.org/2000/svg" xmlns:xlink="http://www.w3.org/1999/xlink">
    <!-- Generator: Sketch 52.5 (67469) - http://www.bohemiancoding.com/sketch -->
    <title>Shape</title>
    <desc>Created with Sketch.</desc>
    <g id="Page-1" stroke="none" stroke-width="1" fill="none" fill-rule="evenodd">
        <g id="768" transform="translate(-983.000000, -591.000000)" fill="#82919A" fill-rule="nonzero">
            <g id="footer" transform="translate(75.000000, 579.000000)">
                <g id="Group-6" transform="translate(715.000000, 12.000000)">
                    <path d="M210.575854,0.0618498496 L193.398958,6.76449303 C192.842596,6.98161399 192.876301,7.7810729 193.449009,7.95039 L197.813842,9.24103782 L199.442799,14.4168358 C199.61296,14.9574653 200.297154,15.1213643 200.69322,14.7164142 L202.949951,12.4090736 L207.377855,15.6636305 C207.919732,16.0619208 208.691459,15.7660109 208.829042,15.1071981 L211.761683,1.06742411 C211.905296,0.379714486 211.229613,-0.193254582 210.575854,0.0618498496 Z M208.422324,3.17762313 L200.443755,10.2425485 C200.364227,10.3129844 200.313612,10.4104546 200.301776,10.5161085 L199.994596,13.2504668 C199.984563,13.3396404 199.859944,13.3514362 199.83334,13.2657617 L198.569505,9.18787225 C198.51162,9.00117192 198.587091,8.79889443 198.752968,8.69589319 L208.174833,2.84451996 C208.391493,2.70985642 208.613339,3.00853179 208.422324,3.17762313 Z" id="Shape"></path>
                </g>
            </g>
        </g>
    </g>
</svg>