<?xml version="1.0" encoding="UTF-8"?>
<svg width="16px" height="16px" viewBox="0 0 16 16" version="1.1" xmlns="http://www.w3.org/2000/svg" xmlns:xlink="http://www.w3.org/1999/xlink">
    <!-- Generator: Sketch 52.5 (67469) - http://www.bohemiancoding.com/sketch -->
    <title>Shape</title>
    <desc>Created with Sketch.</desc>
    <g id="Page-1" stroke="none" stroke-width="1" fill="none" fill-rule="evenodd">
        <g id="768" transform="translate(-831.000000, -591.000000)" fill="#82919A" fill-rule="nonzero">
            <g id="footer" transform="translate(75.000000, 579.000000)">
                <g id="Group-6" transform="translate(715.000000, 12.000000)">
                    <path d="M43.0308779,0 L54.7916447,0 C55.9085382,0 56.8223602,0.828017877 56.8223602,2.03344272 L56.8223602,13.8103296 C56.8223602,15.0157544 55.9085382,15.8437723 54.7916447,15.8437723 L43.0308779,15.8437723 C41.9136595,15.8437723 41,15.0157544 41,13.8103296 L41,2.03344272 C41,0.828017877 41.9136595,0 43.0308779,0 Z M52.5260161,1.7603107 C52.1341692,1.7603107 51.813966,2.08110662 51.813966,2.4736424 L51.813966,4.18092092 C51.813966,4.57329402 52.1341692,4.89425262 52.5260161,4.89425262 L54.3143453,4.89425262 C54.7061922,4.89425262 55.0267203,4.57329402 55.0267203,4.18092092 L55.0267203,2.4736424 C55.0267203,2.08110662 54.7061922,1.7603107 54.3143453,1.7603107 L52.5260161,1.7603107 Z M55.0341934,6.70027511 L53.6416099,6.70027511 C53.7733627,7.13103962 53.8446815,7.58734417 53.8446815,8.05942823 C53.8446815,10.69477 51.6424112,12.8310236 48.9262886,12.8310236 C46.2103285,12.8310236 44.0083831,10.69477 44.0083831,8.05942823 C44.0083831,7.58701882 44.0795394,7.13087694 44.2114547,6.70027511 L42.7582747,6.70027511 L42.7582747,13.3929045 C42.7582747,13.7392404 43.0412752,14.0227837 43.3873091,14.0227837 L54.4054839,14.0227837 C54.7515178,14.0227837 55.0345183,13.7394031 55.0345183,13.3929045 L55.0345183,6.70027511 L55.0341934,6.70027511 Z M48.9261262,4.80429312 C47.1712631,4.80429312 45.7484626,6.18459404 45.7484626,7.88748031 C45.7484626,9.59036659 47.1712631,10.9706675 48.9261262,10.9706675 C50.6811517,10.9706675 52.1041146,9.59036659 52.1041146,7.88748031 C52.1041146,6.18459404 50.6813141,4.80429312 48.9261262,4.80429312 Z" id="Shape"></path>
                </g>
            </g>
        </g>
    </g>
</svg>