<?xml version="1.0" encoding="UTF-8"?>
<svg width="15px" height="16px" viewBox="0 0 15 16" version="1.1" xmlns="http://www.w3.org/2000/svg" xmlns:xlink="http://www.w3.org/1999/xlink">
    <!-- Generator: Sketch 52.5 (67469) - http://www.bohemiancoding.com/sketch -->
    <title>Shape</title>
    <desc>Created with Sketch.</desc>
    <g id="Page-1" stroke="none" stroke-width="1" fill="none" fill-rule="evenodd">
        <g id="768" transform="translate(-1036.000000, -591.000000)" fill="#82919A" fill-rule="nonzero">
            <g id="footer" transform="translate(75.000000, 579.000000)">
                <g id="Group-6" transform="translate(715.000000, 12.000000)">
                    <path d="M258.977244,6.685136 L258.977244,4.6795952 L257.666412,4.6795952 L257.666412,6.685136 L255.700163,6.685136 L255.700163,8.0221632 L257.666412,8.0221632 L257.666412,10.027704 L258.977244,10.027704 L258.977244,8.0221632 L260.943494,8.0221632 L260.943494,6.685136 L258.977244,6.685136 Z M253.930538,8.95808224 L253.209555,8.42327136 C252.947388,8.2227435 252.685247,7.95531184 252.685247,7.48735232 C252.685247,7.0193928 253.012955,6.61828464 253.340664,6.41773056 C254.192705,5.74921696 255.044746,5.013852 255.044746,3.54312208 C255.044746,2.13924352 254.192705,1.3370272 253.733913,0.93591904 L254.848121,0.93591904 L255.634621,0 L251.571039,0 C248.687207,0 247.245291,1.87183808 247.245291,3.87737888 C247.245291,5.41496016 248.425041,7.08624416 250.522373,7.08624416 L251.046706,7.08624416 C250.981165,7.28679824 250.78454,7.62105504 250.78454,7.95531184 C250.78454,8.62382544 251.046706,8.89123088 251.374414,9.29233904 C250.456831,9.3591904 248.752749,9.55974448 247.507458,10.3619608 C246.327708,11.0973258 246,12.1000962 246,12.8354611 C246,14.3730424 247.376374,15.8437723 250.325748,15.8437723 C253.864997,15.8437723 255.569105,13.8382315 255.569105,11.8995683 C255.569079,10.4956635 254.848121,9.76029856 253.930538,8.95808224 Z M248.949374,2.87460848 C248.949374,1.40387856 249.801415,0.73536496 250.718998,0.73536496 C252.423081,0.73536496 253.340664,3.07516256 253.340664,4.41218976 C253.340664,6.15032512 251.964289,6.48458192 251.439956,6.48458192 C249.801415,6.48458192 248.949374,4.41218976 248.949374,2.87460848 Z M251.308847,14.9078533 C249.145973,14.9078533 247.769599,13.9050829 247.769599,12.4343267 C247.769599,10.9635968 249.080431,10.4956373 249.473681,10.2950832 C250.325722,10.0276778 251.43993,9.96082643 251.636555,9.96082643 C251.83318,9.96082643 251.964263,9.96082643 252.095347,9.96082643 C253.668346,11.0972995 254.323762,11.5652591 254.323762,12.6348808 C254.323762,13.9050829 253.078497,14.9078533 251.308847,14.9078533 Z" id="Shape"></path>
                </g>
            </g>
        </g>
    </g>
</svg>