<?xml version="1.0" encoding="UTF-8"?>
<svg width="16px" height="16px" viewBox="0 0 16 16" version="1.1" xmlns="http://www.w3.org/2000/svg" xmlns:xlink="http://www.w3.org/1999/xlink">
    <!-- Generator: Sketch 52.5 (67469) - http://www.bohemiancoding.com/sketch -->
    <title>Shape</title>
    <desc>Created with Sketch.</desc>
    <g id="Page-1" stroke="none" stroke-width="1" fill="none" fill-rule="evenodd">
        <g id="768" transform="translate(-881.000000, -591.000000)" fill="#82919A" fill-rule="nonzero">
            <g id="footer" transform="translate(75.000000, 579.000000)">
                <g id="Group-6" transform="translate(715.000000, 12.000000)">
                    <path d="M94.6513514,15.8437723 L91.331941,15.8437723 L91.331941,5.87216737 L94.6513514,5.87216737 L94.6513514,15.8437723 Z M92.9916462,3.98864198 C91.8851761,3.98864198 91,3.1022771 91,1.99432099 C91,0.886364885 91.8851761,3.69482223e-13 92.9916462,3.69482223e-13 C94.0981163,3.69482223e-13 94.9832924,0.886364885 94.9832924,1.99432099 C94.9832924,3.1022771 94.0981163,3.98864198 92.9916462,3.98864198 Z M106.822523,15.8437723 L103.503112,15.8437723 L103.503112,9.97160496 C103.503112,9.08528352 102.728583,8.3096708 101.843407,8.3096708 C100.958231,8.3096708 100.183702,9.08528352 100.183702,9.97160496 L100.183702,15.8437723 L96.8642916,15.8437723 L96.8642916,5.87216737 L100.183702,5.87216737 L100.183702,7.20171469 C100.736937,6.31534981 101.954054,5.65057614 102.949877,5.65057614 C105.05217,5.65057614 106.822523,7.42330592 106.822523,9.52842252 L106.822523,15.8437723 Z" id="Shape"></path>
                </g>
            </g>
        </g>
    </g>
</svg>