<?xml version="1.0" encoding="UTF-8"?>
<svg width="20px" height="16px" viewBox="0 0 20 16" version="1.1" xmlns="http://www.w3.org/2000/svg" xmlns:xlink="http://www.w3.org/1999/xlink">
    <!-- Generator: Sketch 52.5 (67469) - http://www.bohemiancoding.com/sketch -->
    <title>Shape</title>
    <desc>Created with Sketch.</desc>
    <g id="Page-1" stroke="none" stroke-width="1" fill="none" fill-rule="evenodd">
        <g id="768" transform="translate(-930.000000, -591.000000)" fill="#82919A" fill-rule="nonzero">
            <g id="footer" transform="translate(75.000000, 579.000000)">
                <g id="Group-6" transform="translate(715.000000, 12.000000)">
                    <path d="M157.479514,3.94431591 C157.487205,4.11653843 157.4914,4.29016114 157.4914,4.46378385 C157.4914,9.7501753 153.474069,15.8437723 146.123878,15.8437723 C143.867712,15.8437723 141.767458,15.183586 140,14.0480374 C140.312521,14.0851423 140.630636,14.1040448 140.952945,14.1040448 C142.825276,14.1040448 144.547289,13.4641611 145.914831,12.3916208 C144.16695,12.3594166 142.691038,11.2028653 142.182754,9.61295735 C142.42606,9.65916339 142.677055,9.68506678 142.933644,9.68506678 C143.297903,9.68506678 143.651674,9.63746056 143.986568,9.54574856 C142.158983,9.17890058 140.782352,7.56238914 140.782352,5.62313549 C140.782352,5.60633329 140.782352,5.58883101 140.783051,5.5727289 C141.321398,5.871668 141.937352,6.05229162 142.591759,6.07259428 C141.520657,5.3564006 140.815212,4.13124036 140.815212,2.74365886 C140.815212,2.0099629 141.011674,1.32247298 141.355657,0.731595691 C143.32517,3.15251234 146.270001,4.74452057 149.589577,4.91254255 C149.52106,4.61920418 149.486802,4.31466435 149.486802,4.00032323 C149.486802,1.79153433 151.275234,2.25597319e-13 153.481061,2.25597319e-13 C154.630467,2.25597319e-13 155.667311,0.48586355 156.397226,1.26296519 C157.308222,1.08374175 158.161188,0.751898346 158.93515,0.291938185 C158.634514,1.22656043 158.00318,2.0099629 157.176082,2.50562773 C157.985002,2.40901509 158.756866,2.19478707 159.470701,1.87624541 C158.937947,2.67715016 158.260468,3.38214238 157.479514,3.94431591 Z" id="Shape"></path>
                </g>
            </g>
        </g>
    </g>
</svg>