<?xml version="1.0" encoding="UTF-8"?>
<svg width="18px" height="18px" viewBox="0 0 18 18" version="1.1" xmlns="http://www.w3.org/2000/svg" xmlns:xlink="http://www.w3.org/1999/xlink">
    <!-- Generator: Sketch 52.5 (67469) - http://www.bohemiancoding.com/sketch -->
    <title>inst</title>
    <desc>Created with Sketch.</desc>
    <g id="Symbols" stroke="none" stroke-width="1" fill="none" fill-rule="evenodd">
        <g id="social_header" transform="translate(-139.000000, -15.000000)">
            <g id="Group-7">
                <g id="inst" transform="translate(135.000000, 11.000000)">
                    <g id="Group-2">
                        <rect id="Rectangle-Copy" x="0" y="0" width="26" height="26"></rect>
                        <path d="M6.40973766,4 L19.6406003,4 C20.8971055,4 21.9251552,4.93152011 21.9251552,6.28762306 L21.9251552,19.5366208 C21.9251552,20.8927238 20.8971055,21.8242439 19.6406003,21.8242439 L6.40973766,21.8242439 C5.15286694,21.8242439 4.125,20.8927238 4.125,19.5366208 L4.125,6.28762306 C4.125,4.93152011 5.15286694,4 6.40973766,4 Z M17.0917681,5.98034953 C16.6509404,5.98034953 16.2907118,6.34124495 16.2907118,6.78284771 L16.2907118,8.70353603 C16.2907118,9.14495578 16.6509404,9.5060342 17.0917681,9.5060342 L19.1036385,9.5060342 C19.5444662,9.5060342 19.9050604,9.14495578 19.9050604,8.70353603 L19.9050604,6.78284771 C19.9050604,6.34124495 19.5444662,5.98034953 19.1036385,5.98034953 L17.0917681,5.98034953 Z M19.9134675,11.5378095 L18.3468112,11.5378095 C18.4950331,12.0224196 18.5752667,12.5357622 18.5752667,13.0668568 C18.5752667,16.0316162 16.0977126,18.4349015 13.0420747,18.4349015 C9.98661958,18.4349015 7.50943101,16.0316162 7.50943101,13.0668568 C7.50943101,12.5353962 7.58948182,12.0222366 7.7378865,11.5378095 L6.10305901,11.5378095 L6.10305901,19.0670175 C6.10305901,19.4566455 6.42143459,19.7756317 6.81072274,19.7756317 L19.2061693,19.7756317 C19.5954575,19.7756317 19.9138331,19.4568285 19.9138331,19.0670175 L19.9138331,11.5378095 L19.9134675,11.5378095 Z M13.0418919,9.40482976 C11.067671,9.40482976 9.46702041,10.9576683 9.46702041,12.8734154 C9.46702041,14.7891624 11.067671,16.3420009 13.0418919,16.3420009 C15.0162956,16.3420009 16.617129,14.7891624 16.617129,12.8734154 C16.617129,10.9576683 15.0164784,9.40482976 13.0418919,9.40482976 Z" id="Shape" fill="#FFFFFF" fill-rule="nonzero"></path>
                    </g>
                </g>
            </g>
        </g>
    </g>
</svg>