<?xml version="1.0" encoding="UTF-8"?>
<svg width="19px" height="18px" viewBox="0 0 19 18" version="1.1" xmlns="http://www.w3.org/2000/svg" xmlns:xlink="http://www.w3.org/1999/xlink">
    <!-- Generator: Sketch 52.5 (67469) - http://www.bohemiancoding.com/sketch -->
    <title>in</title>
    <desc>Created with Sketch.</desc>
    <g id="Symbols" stroke="none" stroke-width="1" fill="none" fill-rule="evenodd">
        <g id="social_header" transform="translate(-194.000000, -15.000000)">
            <g id="Group-7">
                <g id="in" transform="translate(190.000000, 11.000000)">
                    <g id="Group-3">
                        <rect id="Rectangle-Copy-2" x="0" y="0" width="26" height="26"></rect>
                        <path d="M8.4827703,21.8242439 L4.74843366,21.8242439 L4.74843366,10.6061883 L8.4827703,10.6061883 L8.4827703,21.8242439 Z M6.61560198,8.48722223 C5.3708231,8.48722223 4.375,7.49006174 4.375,6.24361112 C4.375,4.9971605 5.3708231,4 6.61560198,4 C7.86038086,4 8.85620396,4.9971605 8.85620396,6.24361112 C8.85620396,7.49006174 7.86038086,8.48722223 6.61560198,8.48722223 Z M22.175338,21.8242439 L18.4410013,21.8242439 L18.4410013,15.2180556 C18.4410013,14.220944 17.5696561,13.3483797 16.573833,13.3483797 C15.5780099,13.3483797 14.7066647,14.220944 14.7066647,15.2180556 L14.7066647,21.8242439 L10.9723281,21.8242439 L10.9723281,10.6061883 L14.7066647,10.6061883 L14.7066647,12.101929 C15.3290541,11.1047685 16.6983109,10.3568982 17.8186119,10.3568982 C20.1836918,10.3568982 22.175338,12.3512192 22.175338,14.7194753 L22.175338,21.8242439 Z" id="Shape" fill="#FFFFFF" fill-rule="nonzero"></path>
                    </g>
                </g>
            </g>
        </g>
    </g>
</svg>