<?xml version="1.0" encoding="UTF-8"?>
<svg width="18px" height="18px" viewBox="0 0 18 18" version="1.1" xmlns="http://www.w3.org/2000/svg" xmlns:xlink="http://www.w3.org/1999/xlink">
    <!-- Generator: Sketch 52.5 (67469) - http://www.bohemiancoding.com/sketch -->
    <title>google</title>
    <desc>Created with Sketch.</desc>
    <g id="Symbols" stroke="none" stroke-width="1" fill="none" fill-rule="evenodd">
        <g id="social_header" transform="translate(-360.000000, -15.000000)">
            <g id="Group-7">
                <g id="google" transform="translate(355.000000, 11.000000)">
                    <g id="Group-6">
                        <rect id="Rectangle-Copy-5" x="0.937104455" y="0" width="26" height="26"></rect>
                        <path d="M20.3494,11.520778 L20.3494,9.2645446 L18.8747131,9.2645446 L18.8747131,11.520778 L16.6626828,11.520778 L16.6626828,13.0249336 L18.8747131,13.0249336 L18.8747131,15.281167 L20.3494,15.281167 L20.3494,13.0249336 L22.5614303,13.0249336 L22.5614303,11.520778 L20.3494,11.520778 Z M14.6718556,14.0778425 L13.8607489,13.4761803 C13.5658115,13.2505864 13.270903,12.9497258 13.270903,12.4232714 C13.270903,11.8968169 13.6395747,11.4455702 14.0082465,11.2199469 C14.9667929,10.4678691 15.9253394,9.6405835 15.9253394,7.98601234 C15.9253394,6.40664896 14.9667929,5.5041556 14.4506525,5.05290892 L15.7041364,5.05290892 L16.5889485,4 L12.0174192,4 C8.77310808,4 7.15095252,6.10581784 7.15095252,8.36205124 C7.15095252,10.0918302 8.47817071,11.9720247 10.8376697,11.9720247 L11.4275444,11.9720247 C11.3538101,12.197648 11.1326071,12.5736869 11.1326071,12.9497258 C11.1326071,13.7018036 11.4275444,14.0026347 11.7962162,14.4538814 C10.7639354,14.5290892 8.84684242,14.7547125 7.4458899,15.6572059 C6.11867172,16.4844915 5.75,17.6126082 5.75,18.4398938 C5.75,20.1696727 7.29842121,21.8242439 10.6164667,21.8242439 C14.5981212,21.8242439 16.5152431,19.5680105 16.5152431,17.3870143 C16.5152141,15.8076215 15.7041364,14.9803359 14.6718556,14.0778425 Z M9.06804545,7.23393454 C9.06804545,5.57936338 10.0265919,4.82728558 11.0588727,4.82728558 C12.9759657,4.82728558 14.0082465,7.45955788 14.0082465,8.96371348 C14.0082465,10.9191158 12.4598252,11.2951547 11.8699505,11.2951547 C10.0265919,11.2951547 9.06804545,8.96371348 9.06804545,7.23393454 Z M11.7224529,20.7713349 C9.28921957,20.7713349 7.74079836,19.6432182 7.74079836,17.9886176 C7.74079836,16.3340464 9.21548522,15.807592 9.65789129,15.5819686 C10.6164377,15.2811375 11.8699216,15.2059297 12.0911246,15.2059297 C12.3123276,15.2059297 12.4597963,15.2059297 12.607265,15.2059297 C14.3768893,16.484462 15.1142327,17.0109165 15.1142327,18.2142409 C15.1142327,19.6432182 13.7133091,20.7713349 11.7224529,20.7713349 Z" id="Shape" fill="#FFFFFF" fill-rule="nonzero"></path>
                    </g>
                </g>
            </g>
        </g>
    </g>
</svg>