<?xml version="1.0" encoding="UTF-8"?>
<svg width="23px" height="18px" viewBox="0 0 23 18" version="1.1" xmlns="http://www.w3.org/2000/svg" xmlns:xlink="http://www.w3.org/1999/xlink">
    <!-- Generator: Sketch 52.5 (67469) - http://www.bohemiancoding.com/sketch -->
    <title>twit</title>
    <desc>Created with Sketch.</desc>
    <g id="Symbols" stroke="none" stroke-width="1" fill="none" fill-rule="evenodd">
        <g id="social_header" transform="translate(-247.000000, -15.000000)">
            <g id="Group-7">
                <g id="twit" transform="translate(245.000000, 11.000000)">
                    <g id="Group-4">
                        <rect id="Rectangle-Copy-3" x="0" y="0" width="26" height="26"></rect>
                        <path d="M22.1644536,8.4373554 C22.1731056,8.63110574 22.1778249,8.82643129 22.1778249,9.02175683 C22.1778249,14.9689472 17.6583277,21.8242439 9.38936239,21.8242439 C6.85117625,21.8242439 4.48839001,21.0815342 2.5,19.8040421 C2.85158637,19.8457851 3.20946511,19.8670504 3.57206313,19.8670504 C5.67843514,19.8670504 7.61569962,19.1471812 9.15418493,17.9405734 C7.18781822,17.9043437 5.52741818,16.6032235 4.95559874,14.814577 C5.22931699,14.8665588 5.51168725,14.8957001 5.80034988,14.8957001 C6.2101407,14.8957001 6.60813332,14.8421431 6.98488918,14.7389671 C4.92885615,14.3262632 3.38014574,12.5076878 3.38014574,10.3260274 C3.38014574,10.307125 3.38014574,10.2874349 3.38093228,10.26932 C3.98657323,10.6056265 4.67952086,10.8088281 5.41572855,10.8316686 C4.21073903,10.0259507 3.41711343,8.6476454 3.41711343,7.08661622 C3.41711343,6.26120826 3.63813305,5.4877821 4.02511402,4.82304515 C6.24081602,7.54657638 9.55375064,9.33758564 13.2882743,9.52661037 C13.2111927,9.1966047 13.1726519,8.85399739 13.1726519,8.50036364 C13.1726519,6.01547612 15.1846383,4 17.6661931,4 C18.9592759,4 20.1257246,4.54659649 20.9468793,5.42083584 C21.9717497,5.21920947 22.9313366,4.84588564 23.8020438,4.32843046 C23.4638287,5.37988048 22.7535771,6.26120826 21.8230923,6.8188312 C22.7331268,6.71014198 23.6014744,6.46913546 24.4045385,6.11077608 C23.80519,7.01179394 23.0430262,7.80491017 22.1644536,8.4373554 Z" id="Shape" fill="#FFFFFF" fill-rule="nonzero"></path>
                    </g>
                </g>
            </g>
        </g>
    </g>
</svg>