<?xml version="1.0" encoding="UTF-8"?>
<svg width="22px" height="18px" viewBox="0 0 22 18" version="1.1" xmlns="http://www.w3.org/2000/svg" xmlns:xlink="http://www.w3.org/1999/xlink">
    <!-- Generator: Sketch 52.5 (67469) - http://www.bohemiancoding.com/sketch -->
    <title>tel</title>
    <desc>Created with Sketch.</desc>
    <g id="Symbols" stroke="none" stroke-width="1" fill="none" fill-rule="evenodd">
        <g id="social_header" transform="translate(-302.000000, -15.000000)">
            <g id="Group-7">
                <g id="tel" transform="translate(300.000000, 11.000000)">
                    <g id="Group-5">
                        <rect id="Rectangle-Copy-4" x="0" y="0" width="26" height="26"></rect>
                        <path d="M21.8978362,4.06958108 L2.573828,11.6100547 C1.94792019,11.8543157 1.98583862,12.753707 2.63013498,12.9441887 L7.54057233,14.3961675 L9.37314875,20.2189403 C9.56457978,20.8271485 10.3342986,21.0115348 10.779872,20.555966 L13.3186951,17.9602078 L18.3000868,21.6215843 C18.9096986,22.0696609 19.7778913,21.7367623 19.932672,20.9955978 L23.231893,5.20085212 C23.3934585,4.4271788 22.6333143,3.7825886 21.8978362,4.06958108 Z M19.4751145,7.57482602 L10.4992248,15.522867 C10.4097551,15.6021074 10.352814,15.7117614 10.3394982,15.830622 L9.99392046,18.9067751 C9.9826337,19.0070955 9.84243694,19.0203657 9.81250801,18.9239819 L8.39069351,14.3363563 C8.32557272,14.1263184 8.41047704,13.8987562 8.597089,13.7828798 L19.1966866,7.20008495 C19.4404299,7.04858848 19.6900067,7.38459826 19.4751145,7.57482602 Z" id="Shape" fill="#FFFFFF" fill-rule="nonzero"></path>
                    </g>
                </g>
            </g>
        </g>
    </g>
</svg>