<svg xmlns="http://www.w3.org/2000/svg" width="46" height="44" viewBox="0 0 721.04 687.99">
  <path d="M177.5 248.58h-16l-28.7 74.4h15.9l6.1-16.9h29.7l6.5 17h16.3zm-18.2 45l10-27.7 10.2 27.6zm77 29.3l14.7-55.5 14.8 55.5h16l18-74.3h-15.2l-11.4 51.9-13-52h-17.8l-13.6 51-11.2-51h-15.4l17.8 74.5zm102.6-74.3h-15.8l-29.1 74.4h16l6-16.9h30l6.5 17h16.3zm-18 45l10-27.7 10.2 27.6zm70.8 29.3v-31h3a24.7 24.7 0 0 1 7.6.9 11.5 11.5 0 0 1 4.5 3 105 105 0 0 1 7.9 11l10.8 16.1h18l-9-14.4a84.8 84.8 0 0 0-8.6-12 35 35 0 0 0-8-6.3q9.8-1.4 14.7-6.9a20 20 0 0 0 4.9-13.8 21.4 21.4 0 0 0-3.3-11.7 17 17 0 0 0-8.6-7.2q-5.4-2-17.3-2h-31.6v74.4zm0-61.7h11.7q9.1 0 11 .2a9.2 9.2 0 0 1 5.6 3 9 9 0 0 1 2 6 9.7 9.7 0 0 1-1.5 5.6 8 8 0 0 1-4.2 3.1q-2.7 1-13.5 1h-11.1zm59.9 61.7h28.2a45.4 45.4 0 0 0 13.3-1.6 26.4 26.4 0 0 0 10.5-5.9 32.8 32.8 0 0 0 8-13.1 48.8 48.8 0 0 0 2.2-15.8 54.8 54.8 0 0 0-2.4-17.6 32.5 32.5 0 0 0-7.1-12 24.9 24.9 0 0 0-11.2-6.8q-4.9-1.5-14.2-1.5h-27.3zm21.7-61.7q9.2 0 12.3.7a14.3 14.3 0 0 1 7 3.5 17 17 0 0 1 4.2 7.2q1.6 4.6 1.6 13.2a48.5 48.5 0 0 1-1.6 13.7q-1.5 5-4 7.1a13.8 13.8 0 0 1-6 3.1 40.9 40.9 0 0 1-9 .7h-11.2v-49.2zm58.5 56.5q7.6 6.5 21.7 6.5 9.6 0 16.1-2.7a21.3 21.3 0 0 0 10-8.3 23.4 23.4 0 0 0 .6-23.8 20.9 20.9 0 0 0-8.2-7.5q-5.2-2.8-16.2-5.4t-13.8-5a5.7 5.7 0 0 1-2.2-4.4 5.4 5.4 0 0 1 2.4-4.6q3.7-2.7 10.2-2.7t9.5 2.5q3.1 2.5 4.2 8.2l15-.6q-.4-10.3-7.5-16.4t-21-6.1a37.2 37.2 0 0 0-14.6 2.5 20.1 20.1 0 0 0-9.3 7.6 19.1 19.1 0 0 0-3.2 10.6 19.3 19.3 0 0 0 6.8 15q4.9 4.3 17 7.3 9.3 2.4 12 3.3a12.4 12.4 0 0 1 5.3 3.2 6.8 6.8 0 0 1 1.6 4.5 9.1 9.1 0 0 1-3.7 7q-3.7 3.1-11 3.1-6.7 0-10.8-3.4t-5.3-10.8l-14.6 1.4q1.4 12.5 9 19zm-384.4 52.5a6.7 6.7 0 0 1 4-1q3.6 0 5 1.1a4.8 4.8 0 0 1 1.2 3.9v1a51 51 0 0 1-9 2.2 31.3 31.3 0 0 0-7.5 2.2 9.3 9.3 0 0 0-4 3.6 10 10 0 0 0-1.4 5.3 9.8 9.8 0 0 0 3.1 7.5 12.07 12.07 0 0 0 8.6 3 14.7 14.7 0 0 0 5.9-1.2 16.9 16.9 0 0 0 5.1-3.5l.3 1.1 1 2.8h9.2a20 20 0 0 1-1.7-4.7 38 38 0 0 1-.4-6.9v-11q0-6-1.2-8.3a9.3 9.3 0 0 0-4.3-3.8q-3-1.4-9.3-1.4-7 0-10.4 2.4a13.2 13.2 0 0 0-5 7.6l8.5 1.5a6.8 6.8 0 0 1 2.3-3.4zm10.3 12.9a18.5 18.5 0 0 1-.4 4.6 5.9 5.9 0 0 1-2.2 3 8.1 8.1 0 0 1-4.9 1.7 5.1 5.1 0 0 1-3.7-1.4 4.6 4.6 0 0 1-1.5-3.4 3.9 3.9 0 0 1 1.9-3.3 17.1 17.1 0 0 1 5-1.6 58.5 58.5 0 0 0 5.8-1.5zm43.7-18.3q-3.8-2.7-10.2-2.7-8 0-12.6 4.8t-4.6 13.7q0 8.6 4.6 13.5t12.4 5q6.8 0 10.9-3.3a16.39 16.39 0 0 0 5.5-9.6l-9.2-1.5q-.7 3.7-2.4 5.2a6.3 6.3 0 0 1-4.4 1.5 7 7 0 0 1-5.7-2.6q-2-2.6-2-8.9 0-5.7 2-8a7 7 0 0 1 5.6-2.5 6.4 6.4 0 0 1 4.3 1.4 6.7 6.7 0 0 1 2 4.2l9.3-1.7a15.4 15.4 0 0 0-5.5-8.5zm12.6-15.4v48.8h9.3v-17.7a20.4 20.4 0 0 1 .9-6.8 6.5 6.5 0 0 1 2.6-3.4 7.8 7.8 0 0 1 4.2-1.1 6 6 0 0 1 3.4.9 4.6 4.6 0 0 1 1.9 2.3q.5 1.5.5 7.1v18.7h9.3v-20.7a37 37 0 0 0-.4-7 11.1 11.1 0 0 0-1.8-4.2 9.5 9.5 0 0 0-4-3 14 14 0 0 0-16.6 4v-17.9zm51 8.7v-8.7h-9.4v8.7zm0 40.1v-35.2h-9.4v35.3zm27.8-7.4a5.7 5.7 0 0 1-3.7 1.2 7 7 0 0 1-5.4-2.3 9.5 9.5 0 0 1-2.3-6.5h23.4q.2-10.7-4.3-16t-12.5-5.2a15.1 15.1 0 0 0-11.6 5q-4.6 5-4.6 13.8 0 7.4 3.5 12.2 4.5 6 13.7 6a16.7 16.7 0 0 0 9.7-2.7 15.3 15.3 0 0 0 5.7-7.8l-9.4-1.6a7.4 7.4 0 0 1-2.2 4zm-11.2-13.3a8.6 8.6 0 0 1 2-6 6.8 6.8 0 0 1 9.6-.59q.21.18.4.39a9 9 0 0 1 2 6.2zm49 20.7l14-35.4H335l-6.7 18-1 3-1 3-2-6-6.6-18h-9.8l14.2 35.4zm38-7.4a5.7 5.7 0 0 1-3.7 1.2 7 7 0 0 1-5.4-2.3 9.5 9.5 0 0 1-2.2-6.5h23.4q.2-10.7-4.3-16t-12.5-5.2a15.1 15.1 0 0 0-11.6 5q-4.6 5-4.6 13.8a20 20 0 0 0 3.5 12.1q4.4 6 13.6 6a16.7 16.7 0 0 0 9.7-2.6 15.3 15.3 0 0 0 5.7-7.8l-9.3-1.6a7.4 7.4 0 0 1-2.3 4zm-11.2-13.3a8.6 8.6 0 0 1 2-6 6.8 6.8 0 0 1 9.6-.59q.21.18.4.39a9 9 0 0 1 2 6.2zm30.2 20.7h9.4v-17.2a25 25 0 0 1 .8-7.3 6.4 6.4 0 0 1 2.4-3.3 6.8 6.8 0 0 1 4-1.2 4.9 4.9 0 0 1 2.8.7 4.3 4.3 0 0 1 1.5 2.3 26.9 26.9 0 0 1 .5 6.6v19.4h9.4v-17a25.3 25.3 0 0 1 .8-7.3 6.7 6.7 0 0 1 2.5-3.5 6.4 6.4 0 0 1 3.7-1.2 4.4 4.4 0 0 1 4 2q1 1.5 1 6.8v20.2h9.3v-22.6a20.1 20.1 0 0 0-1-7.3 9.7 9.7 0 0 0-4-4.7 12.8 12.8 0 0 0-6.6-1.6 12.3 12.3 0 0 0-5.7 1.4 16.3 16.3 0 0 0-5 4.3 10.7 10.7 0 0 0-4.1-4.3 11.9 11.9 0 0 0-6-1.4q-6.3 0-11 5.7v-4.9h-8.5zm79.6-7.4a5.7 5.7 0 0 1-3.7 1.2 7 7 0 0 1-5.4-2.3 9.5 9.5 0 0 1-2.3-6.5h23.5q.2-10.7-4.4-16t-12.4-5.2a15.1 15.1 0 0 0-11.7 5q-4.6 5-4.6 13.8a20 20 0 0 0 3.5 12.1q4.5 6 13.7 6a16.7 16.7 0 0 0 9.7-2.6 15.3 15.3 0 0 0 5.7-7.8l-9.3-1.6a7.4 7.4 0 0 1-2.3 4zm-11.2-13.3a8.6 8.6 0 0 1 2-6 6.8 6.8 0 0 1 9.6-.48l.3.28a9 9 0 0 1 2.1 6.2zm63-1.3a29.2 29.2 0 0 0-.5-6.3 10.3 10.3 0 0 0-1.8-4 9.5 9.5 0 0 0-3.9-2.7 14.5 14.5 0 0 0-17.3 4.8v-5h-8.7v35.3h9.4v-16q0-6 .7-8.1a6.7 6.7 0 0 1 2.6-3.5 7.5 7.5 0 0 1 4.4-1.4 5.6 5.6 0 0 1 3.2 1 5.2 5.2 0 0 1 2 2.6q.6 1.6.6 7.4v18h9.3zm19.3-13.4v-12.4l-9.3 5.4v7h-4.3v7.5h4.3v15.4a45.4 45.4 0 0 0 .3 6.6 8.7 8.7 0 0 0 1.3 3.6 6.7 6.7 0 0 0 3 2.2 11.7 11.7 0 0 0 4.5.9 18.6 18.6 0 0 0 7.4-1.4l-.8-7.3a12.1 12.1 0 0 1-3.7 1 2.6 2.6 0 0 1-1.6-.5 2 2 0 0 1-.8-1.2 35.5 35.5 0 0 1-.2-5v-14.3h6.4v-7.5zm15.1 33.2q4.3 3 11.5 3 8 0 12-3.5a10.7 10.7 0 0 0 4-8.4 8.7 8.7 0 0 0-2.9-7q-3-2.4-10.4-4.1t-8.8-2.6a2 2 0 0 1-1-1.7 2.2 2.2 0 0 1 1.2-1.9 10.2 10.2 0 0 1 5.2-1 7.9 7.9 0 0 1 4.6 1.1 5.5 5.5 0 0 1 2.1 3.2l8.8-1.7a12 12 0 0 0-4.8-7q-3.6-2.3-10.8-2.3-7.6 0-11.3 3.1a9.8 9.8 0 0 0-3.6 7.7 9.1 9.1 0 0 0 4.2 8q3 2.1 14.3 4.6a7.5 7.5 0 0 1 3.2 1.2 2.5 2.5 0 0 1 .6 1.8 3 3 0 0 1-1.2 2.5 9.3 9.3 0 0 1-5.5 1.3 8.2 8.2 0 0 1-5-1.4 6.9 6.9 0 0 1-2.5-4.2l-9.4 1.5a13.5 13.5 0 0 0 5.5 7.9z"/>
  <path d="M574 68.88l-.8-28.2 8.6 10.2c22.3 26.2 28.5 37.8 30.2 56.4 1 11-1.3 27-4.2 30.2a1.7 1.7 0 0 1-1.2.6c-1.3 0-8-6-11.3-9.1a75.7 75.7 0 0 1-15.1-21.2c-5-10.9-5.7-14.9-6.3-39zm1.7 568.7c-31-6.8-63.6-12-76-12-13.4 0-39.7 5.6-47.6 10.2a1.7 1.7 0 0 0-.9 1.6c.3 3.6 12.3 11.3 24.7 15.9 7.9 2.9 16.3 4 29.9 4.1h1.2c15.6 0 22.1-1.3 46.6-8.7 21.5-6.5 25.3-7.9 25.2-9.5 0-.8-1.1-1.2-3-1.6zm64.7-432.2a3.4 3.4 0 0 0 2.5 1.6c1.2 0 2.4-1.2 4-3.2a81 81 0 0 0 11.8-35c0-9.7-8.5-41-17.3-64.2a1 1 0 0 0-.9-.7c-1.4 0-3.9 4.7-7.4 14-5.6 14.7-6.3 19-6.4 39.2-.1 21 .3 23.6 5.7 34.1a148.42 148.42 0 0 0 8 14.2zm-33 360.8c-27.2 2.3-45.8 8.1-62.3 19.4-11.7 7.9-16.1 12-16.3 15.1a3.7 3.7 0 0 0 1.5 3c1.7 1.5 7 3.4 11.8 4.4a79 79 0 0 0 15.8 1.6c12 0 24-3 39.9-9.5 9.7-4 51.1-31 53.4-34.8a.9.9 0 0 0 0-1c-.8-1.3-7.5-1.3-43.7 1.8zm82.4-91.6a197.23 197.23 0 0 1-19.6 5.2c-16.3 3.5-43.4 18-56.7 30.7q-2.49 2.41-4.8 5a321.3 321.3 0 0 0 29.1-53.4 2.6 2.6 0 0 0 1 1.7 3.5 3.5 0 0 0 2 .5c2.2 0 6-1.1 12.8-3.7a80.8 80.8 0 0 0 36.1-26.7c6.3-8.7 32.5-60 31.3-62.4a.6.6 0 0 0-.6-.4c-1.7 0-29 17.6-42.7 27a83 83 0 0 0-27 28.2 327 327 0 0 0 10.7-50.8l.2.1a2.8 2.8 0 0 0 1.5.4c2.4 0 6.3-2.2 13.5-6.6 18.3-11.2 29.9-33.4 35.3-67.8 1.6-9.8 3.7-20.1 4.8-23 .8-2.1 1.3-4.7.6-5.6a1 1 0 0 0-.7-.5c-3.5 0-33.9 32.2-40.6 42.2a87.3 87.3 0 0 0-11.9 24.8l.1-6.8a331.8 331.8 0 0 0-3.4-47.2c.9 1.2 2 2.5 2.7 2.5 4.3 0 14.8-9.2 18.5-16 8.7-16.2 10.9-36.2 7.9-71.3l-1.9-21.5-9.5 15.2q-8.28 13.24-15.3 27.2c-6.1 12.6-6.5 14.9-6.5 35.1v6.3a324.3 324.3 0 0 0-33.2-89 316 316 0 0 0-74.9-90.3 8 8 0 0 0 2 .4 1.8 1.8 0 0 0 .5-.1 2.4 2.4 0 0 0 1.4-1.3c2.2-4 2.3-16 .2-23.2-3.2-11-20.8-30.8-37-41.5-14.9-10-15.6-9.2-15.8-9-1.7 1.6 6.1 28 9.3 35.2a94 94 0 0 0 15.4 21.5l-8-5.2h-.2c-5.2-2.6-15.4-8.3-25.3-14l-.7-.3v-1c0-14.8-15-30.2-34.7-36l-22.5-6.7c-3-1-10.1-3.1-10.9-2.3a.8.8 0 0 0-.2.6c.2 3.4 21.4 30 28.8 36a69.2 69.2 0 0 0 17 9.7 66 66 0 0 0 13.5 3.2l26 18a79.8 79.8 0 0 0-23.5-1.5c-12.5 1.3-41.6 10-45 13.5a.7.7 0 0 0-.2.7c.6 1.8 13 3 15.5 3.3 9.1.8 22 2.3 28.6 3.2a160.3 160.3 0 0 0 20 1c12 0 24.3-.8 27.8-2.2a12.7 12.7 0 0 0 1.7-.8 296.51 296.51 0 0 1 23 19.3 115 115 0 0 0-40.4-6h-.4c-18.2 0-20.9 1.5-21.1 3-.2 1.2 1.5 2.4 5.8 4 4.1 1.5 16 7 26.5 12s24.5 10.5 31.2 11.9a149.5 149.5 0 0 0 23 2.7h1.6q3.6 4.4 7.1 9 7 9 13.4 18.6a101.3 101.3 0 0 0-19.2-10.8c-13-5.6-40-13.3-42.3-10.9l-.2.2v.2a108 108 0 0 0 14 12.8l25.4 21c11.1 9.4 32.2 22.3 39.4 24.2l4 1a315 315 0 0 1 13.8 35 105.5 105.5 0 0 0-38.6-31c-3-1.8-19-10.2-20.5-9.2a.6.6 0 0 0-.3.5c0 1.4 4 6.3 6.7 9.2 7.3 7.9 17.3 22.7 23.3 34.4a132 132 0 0 0 33.3 34.1 63.4 63.4 0 0 0 7 4.4 325.1 325.1 0 0 1 5.3 47.5 105.21 105.21 0 0 0-3.5-11.5c-4.6-12.7-7.7-17.1-20.6-30-8.3-8.3-17.3-17.3-20-20.2l-5-5.1-.8.5 1.4 5.1c14.5 50.8 23.3 71.1 39.6 90.9 4.5 5.5 6.5 7.9 8 8.4q-.7 8.3-1.8 16.5c-1.3 9.3-3 18.6-5 27.8a86 86 0 0 0-4.5-23.8c-3.3-9.4-26.4-49.5-29.6-50.2a.7.7 0 0 0-.7.2c-1.7 2 3.5 70.2 5.2 77.3a108.5 108.5 0 0 0 15.4 34.3l2 2.2a313.1 313.1 0 0 1-20.7 44 125.8 125.8 0 0 0 .1-41.7c-3.3-19.2-9.2-39.7-13-39.7-1.4.1-2 2.4-2 7.3 0 3-2.8 16.5-6.1 30-9.5 38.7-9.8 52.4-1.6 73.6l1.2 3.2a306.7 306.7 0 0 1-24.3 28.8c4.1-12.6 6.3-36.2 4.8-54.9l-1.6-19-9.6 18.5q-6.12 11.95-13.3 23.3c-10.7 15.3-14 26.2-15.2 48.5l-.7 15.1q-5 3.81-10.2 7.4a252.7 252.7 0 0 1-22 13.8c10.2-14 18-33.1 21.2-54.1l1.9-12-13.3 12.7c-38 36.4-48.5 50.6-50.9 68.7l-.4 3.7a283.3 283.3 0 0 1-34 10c12.2-8 31-32.7 34-45l1.5-6.4-10.8 5.4a221.3 221.3 0 0 1-22.7 9.2 103 103 0 0 0-20.4 9.5c-9.6 6.5-23.9 24.8-23.9 30.5a4.2 4.2 0 0 0 .8 3 284 284 0 0 1-37.9.4l-3-7.4c-7.4-18.1-19-27.7-44.6-36.6a207.2 207.2 0 0 1-22.4-9.3l-9.7-5.1 1.7 5.9c4 13.8 22.8 37.1 36.4 47q-8-1.8-15.8-4-10.6-2.7-20.9-6.4a29.2 29.2 0 0 0-.2-5c-1.8-16-7.4-24.3-35.4-52.7l-28-28.5 1.4 10.4c.7 5 3.5 16.4 6.3 25.5q5.9 19.5 16.6 32.6a290.4 290.4 0 0 1-34.5-22.1l.7-3c4-16.3-3.8-44.6-18-65.9-3-4.3-8.5-14.2-12.6-22.1l-7.3-14.4-1 .2-.6 26.7c-.4 15 .3 31.5 1.6 37.6a52 52 0 0 0 5.3 13.5 308.8 308.8 0 0 1-28.3-32.3c3.8-2.7 8-23.7 8-36 0-8.5-2.6-24.4-7-42.4-3.8-15.8-7-31.4-7.1-34.8-.1-3.7-.2-4.6-1-4.8s-1.3.9-4 7c-4.6 10.2-12 45-12 56.5 0 4.4 1.6 15 3.4 23.5l.7 3a303.3 303.3 0 0 1-18.4-35.6q-3.1-7.1-6-14.5c1 0 2.1-1 3.5-2.2 5-4.7 11-16.5 15-29.4 2.3-7.4 6.4-55.7 6.7-79.4 0-1-.5-1.3-.8-1.4-4.3 0-26.6 39-30 51a90.4 90.4 0 0 0-3.8 32.3 314.6 314.6 0 0 1-9.6-56c.4 1.3 1 2.3 1.5 2.3 2.4 0 21.2-26.3 26.1-35.3 3.7-6.6 9.7-24 19.5-56.8 1.6-5.2 3.3-11 3.3-11.8v-.4l-.3-.1c-.4-.2-1-.5-18.6 16.8-19.6 19.2-25.8 29.4-31.4 51.9l-1.2 5.7a326.8 326.8 0 0 1 5.3-57 1.4 1.4 0 0 0 .3.2 1.6 1.6 0 0 0 .7.2c1.5 0 4-1.7 9.6-5.7a165 165 0 0 0 39.3-44.4q8.63-13.41 18.3-26.1c3.9-4.8 5.7-7.6 5.4-8.2l-.2-.4h-.4c-4 0-39.3 20.6-46.6 27.2a95.5 95.5 0 0 0-17.5 20.7 307 307 0 0 1 15.7-40.7h.4c9.6 0 42.2-20.2 59.2-36.5 4-3.8 11.9-10.5 17.7-15 6.4-5 8.2-6.9 7.6-8.1-.7-1.5-4.5-1-17.5 2.1-19 4.6-36.4 13.4-49.3 24.1a292.3 292.3 0 0 1 23.7-32.3h3.7c16.6 0 35.5-5 53-13.9 8.8-4.4 20.3-9.7 25.6-11.8 7.1-2.7 7.9-4 7.7-5.1-.3-1.5-3-3-20.9-3-18.6 0-32.3 2-43.9 7.2a303 303 0 0 1 25.2-21 37.4 37.4 0 0 0 8.5 2.6 89 89 0 0 0 17.6 1.6c8.6 0 18.8-1 32.1-2.8 12.2-1.6 25.4-3 29.5-3 .8 0 8 0 8-2.1s-14.9-7.1-17.9-8.1a103 103 0 0 0-56.7-3.9q14.9-11.1 24.7-18.8a25.6 25.6 0 0 0 2.8 0c15.1 0 27-6 42-21.5 11-11.4 22-25 20-27.7-.6-1-2.3-.3-2.8-.1-2 .8-10 3.2-17.7 5.2-31.1 8.2-41.7 16.3-46.1 35.6l-3.4 2.2c-8.9 5.6-19 12.2-27 17.6a86 86 0 0 0 18-38.4l4-15.4-5.4 2.9c-2.4 1.3-9.7 6-16.2 10.5-25.6 17.7-38.8 40-34.3 58.2.3 1.5 1.2 4.6 2.1 5.5a312.6 312.6 0 0 0-33 31.8c10.2-15.7 14.2-36.2 11.7-59.9l-1.5-14.6-13.6 17a183.9 183.9 0 0 0-18 26.6 73 73 0 0 0-4.8 43.6c.7 3.2 2.4 9.1 4.4 9.1 1.3 0 6-4 10-8a318.7 318.7 0 0 0-31.4 47.9 90.1 90.1 0 0 0 2.3-20.2c0-12.4-1.4-20.3-6.7-36.9l-7.3-22.5-6.2 18.7c-15.3 46.5-15.8 61.4-2.7 84l4.4 7.8 3.4-4a325.8 325.8 0 0 0-14.6 42.6 54.82 54.82 0 0 0-1-5.6 128 128 0 0 0-15-36.8 147 147 0 0 1-9.5-14.7c-5-8.4-6-9.8-7-9.6-.8.3-.9 1.6-.9 4.7 0 3.6-.7 16.7-1.6 29.2-2.5 37.3 3.8 59.3 20.1 69.3 3.2 2 5.3 3.3 7 3.5a331.4 331.4 0 0 0-3.2 45.2v.5c-7-15.1-24.2-40.5-31.5-45.7-2.7-2-8.2-6.2-12.1-9.6-4.8-4.1-6-4.6-6.7-4.1s-.4 1.2 0 2.4c.8 2.1 2.8 12.2 4.5 22.5 5.9 36.7 16.3 57.6 34.7 70.1 5.4 3.6 12 7.4 14 7.5a328.2 328.2 0 0 0 8.7 43.9 69.4 69.4 0 0 0-18.3-19c-3.9-2.4-12.3-8-18.7-12.6s-16-10.9-21.2-14L0 368.18l12.7 26.3q8.68 18.22 19 35.6a79.5 79.5 0 0 0 50.8 34.1 3 3 0 0 0 2-.5 318.6 318.6 0 0 0 23.2 44 73.6 73.6 0 0 0-6-5.2 149 149 0 0 0-48.2-22.6 138.4 138.4 0 0 1-18.8-5.2c-7-2.8-8.7-3.2-9.3-2.3s.3 2.1 4.5 6.8c3.3 3.7 10 12.1 14.9 18.7 9 12.4 29.8 30.8 42 37.3 3.7 2 12.2 4.8 19 6.3a77.9 77.9 0 0 0 14.7 2 9.3 9.3 0 0 0 1.9 0 43.5 43.5 0 0 1 7.4-1c1.4 0 2.4 0 2.9-.8q6.6 7.8 13.6 15.2a313.4 313.4 0 0 0 28.8 26.6l-5.5-3q-8.12-4.07-16.2-8.2c-6.7-3.4-78.9-11.4-82.1-9l-.3.1v.3c0 1 13.7 10.8 21.9 16.6 22 15.6 28.2 18.8 51.2 26a73.5 73.5 0 0 0 21.6 3 68 68 0 0 0 25.3-4.3l8-3.4-3-2.5a295.3 295.3 0 0 0 55.4 29.6 154.3 154.3 0 0 0-61.7 1c-10.8 2.2-26 5.1-34.2 6.5l-14.7 2.5v1l8.7 2.5 28.7 8.7a141.4 141.4 0 0 0 41.5 6.4c20 0 37.8-4.7 48-14l7-6.2-1-.4a290.3 290.3 0 0 0 42.7 9.8 123 123 0 0 0-16 4.9q-19.55 8.62-38.6 18.3c-31 15.4-31 16.2-31 16.6v.3l.2.1c.4.3 2.3.5 5.3.5 11.4 0 38-1.9 46.4-3.1 17.7-2.7 40.7-10.5 50.2-17.1a88.3 88.3 0 0 0 14-13.3l3.4-4q11 .41 22.1 0l9.4 9a59.7 59.7 0 0 0 30 17.8 153 153 0 0 0 53 9.7c13.3.8 25.1 1.6 26.5 1.8a6.49 6.49 0 0 0 .9 0 3 3 0 0 0 1.9-.5 1 1 0 0 0 .3-.7c0-2-19.3-11.3-24.4-12.8-2.7-.8-8.1-3.7-12-6.4a174.8 174.8 0 0 0-52.4-21.2 300.4 300.4 0 0 0 187.5-109.9 11 11 0 0 0-1.5 4.2c0 1.4 4.5 2.2 6 2.4a27.6 27.6 0 0 0 4.2.3c11.6 0 30.7-5 39-10.7 24.7-16.9 31.1-23 42.9-41a61 61 0 0 1 12-13.8c4.5-3 4.7-4.1 4.4-4.8-.3-.5-.9-1.7-10.2 1.5z"/>
</svg>
