<svg xmlns="http://www.w3.org/2000/svg" width="16" height="16" viewBox="0 0 16 16">
  <path d="M13.51 6.76v-2h-1.32v2h-2V8.1h2v2h1.31v-2h2V6.76zM8.46 9l-.72-.5a1.13 1.13 0 0 1-.52-.94 1.33 1.33 0 0 1 .65-1.06 3.46 3.46 0 0 0 1.7-2.87A3.37 3.37 0 0 0 8.26 1h1.12l.79-.94H6.1C3.22.08 1.77 1.95 1.77 4a3.2 3.2 0 0 0 3.28 3.16h.52a2.71 2.71 0 0 0-.26.84 1.82 1.82 0 0 0 .59 1.37A8.67 8.67 0 0 0 2 10.44a2.9 2.9 0 0 0-1.47 2.47c0 1.54 1.38 3 4.33 3 3.54 0 5.24-2 5.24-3.94A3.66 3.66 0 0 0 8.46 9zM3.48 3c0-1.47.85-2.14 1.77-2.14C7 .81 7.87 3.15 7.87 4.49A1.91 1.91 0 0 1 6 6.56C4.33 6.56 3.48 4.49 3.48 3zm2.36 12c-2.17 0-3.54-1-3.54-2.49A2.4 2.4 0 0 1 4 10.37 9.22 9.22 0 0 1 6.16 10h.46c1.57 1.14 2.23 1.6 2.23 2.67C8.85 14 7.61 15 5.84 15z" />
</svg>
