<svg xmlns="http://www.w3.org/2000/svg" width="16" height="16" viewBox="0 0 16 16">
  <path d="M2.05 0h11.9A2 2 0 0 1 16 2.05v11.9A2 2 0 0 1 13.95 16H2.05A2 2 0 0 1 0 13.95V2.05A2 2 0 0 1 2.05 0zm9.6 1.78a.72.72 0 0 0-.72.72v1.72a.72.72 0 0 0 .72.72h1.81a.72.72 0 0 0 .72-.72V2.5a.72.72 0 0 0-.72-.72zm2.54 5h-1.41A4.68 4.68 0 0 1 13 8.14 4.9 4.9 0 0 1 8 13a4.9 4.9 0 0 1-5-4.86 4.67 4.67 0 0 1 .21-1.37H1.78v6.76a.64.64 0 0 0 .64.64h11.14a.64.64 0 0 0 .64-.64V6.77zM8 4.85A3.16 3.16 0 0 0 4.8 8 3.16 3.16 0 0 0 8 11.08 3.16 3.16 0 0 0 11.23 8 3.16 3.16 0 0 0 8 4.85z"/>
</svg>
